<?xml version="1.0" encoding="utf-8"?>
<!-- Generator: Adobe Illustrator 18.0.0, SVG Export Plug-In . SVG Version: 6.00 Build 0)  -->
<!DOCTYPE svg PUBLIC "-//W3C//DTD SVG 1.0//EN" "http://www.w3.org/TR/2001/REC-SVG-20010904/DTD/svg10.dtd">
<svg version="1.0" id="Camada_1" xmlns="http://www.w3.org/2000/svg" xmlns:xlink="http://www.w3.org/1999/xlink" x="0px" y="0px"
	 viewBox="0 0 500 500" enable-background="new 0 0 500 500" xml:space="preserve">
<linearGradient id="SVGID_1_" gradientUnits="userSpaceOnUse" x1="5.748616e-004" y1="499.9993" x2="499.9991" y2="7.347217e-004">
	<stop  offset="0.2527" style="stop-color:#0097C7"/>
	<stop  offset="1" style="stop-color:#662D91"/>
</linearGradient>
<rect x="0" y="0" fill="url(#SVGID_1_)" width="500" height="500"/>
<g>
	<path fill="#FFFFFF" d="M481.4,434.1c-0.5-1.3-1.3-2.2-2.6-2.7c-1.2-0.6-2.5-0.6-3.7-0.2c-1.3,0.5-2.2,1.3-2.7,2.6l-15.8,35.2
		l-11.2-25.2c-0.6-1.3-1.5-2.1-2.7-2.6c-1.3-0.5-2.5-0.4-3.7,0.2c-1.2,0.5-2.1,1.5-2.6,2.7c-0.5,1.3-0.5,2.5,0.1,3.8l15.7,35.1
		l0.1,0.1l0.1,0.1l0.2,0.5l0.3,0.4l0.3,0.3l0.4,0.3l0.3,0.3l0.5,0.3l0.2,0.1l0.1,0.1l0.2,0l0.5,0.2l0.4,0.2l0.5,0l0.5,0l0.5,0l0.5,0
		l0.4-0.2l0.5-0.2l0.2,0l0.1-0.1l0.1-0.1l0.5-0.3l0.4-0.3l0.4-0.3l0.3-0.3l0.3-0.4l0.3-0.5l0.1-0.1l0.1-0.1l20.3-45.1
		C481.9,436.7,481.9,435.4,481.4,434.1z"/>
	<path fill="#FFFFFF" d="M455.7,444.9c2.4,0,4.5-0.9,6.2-2.6c1.7-1.7,2.6-3.8,2.6-6.2c0-2.4-0.9-4.5-2.6-6.2
		c-1.7-1.7-3.8-2.6-6.2-2.6c-2.4,0-4.5,0.9-6.2,2.6c-1.7,1.7-2.6,3.8-2.6,6.2c0,2.4,0.9,4.5,2.6,6.2
		C451.2,444,453.2,444.9,455.7,444.9z"/>
</g>
<text transform="matrix(1 0 0 1 54.3041 327.6245)" fill="#FFFFFF" font-family="'Lato-Thin'" font-size="113.976">000001</text>
<text transform="matrix(1 0 0 1 60.5072 111.8457)"><tspan x="0" y="0" fill="#FFFFFF" font-family="'Lato-Medium'" font-size="42.3714">Cadastre-se usando </tspan><tspan x="-15" y="50.8" fill="#FFFFFF" font-family="'Lato-Medium'" font-size="42.3714">meu código de acesso</tspan></text>
</svg>
